C:\GBW_MyPrograms\KinderuniversiteitApp\Resultaten\Ellis_1010\Kleuter\Kleuter_v3.mot
version=1
nRows=11
nColumns=29
inDegrees=yes
endheader
                time	         pelvis_tilt	           pelvis_tx	           pelvis_ty	       hip_flexion_l	       hip_flexion_r	        knee_angle_l	        knee_angle_r	       ankle_angle_l	       ankle_angle_r	    lumbar_extension	hamstrings_r/activation	bifemsh_r/activation	glut_max_r/activation	iliopsoas_r/activation	rect_fem_r/activation	  vasti_r/activation	gastroc_r/activation	 soleus_r/activation	tib_ant_r/activation	hamstrings_l/activation	bifemsh_l/activation	glut_max_l/activation	iliopsoas_l/activation	rect_fem_l/activation	  vasti_l/activation	gastroc_l/activation	 soleus_l/activation	tib_ant_l/activation	
          0.00000000	          1.35828304	          0.00000000	          0.88969052	         24.19395532	        -19.17030472	        -10.78455124	        -13.69526959	         -1.52947922	          7.23274063	         -7.16553193	          0.10457491	          0.10457493	          0.10459213	          0.10457491	          0.10457491	          0.10457489	          0.10457491	          0.10457491	          0.10457491	          0.10457491	          0.10457492	          0.10457487	          0.10457491	          0.10457491	          0.10457492	          0.10457491	          0.10457491	          0.10457491	
          0.01436089	          1.28898077	          0.01549249	          0.89259340	         24.25085636	        -19.04627424	        -12.13232691	        -15.65295039	         -2.32073422	          5.99975152	         -6.93741323	          0.10457491	          0.10457493	          0.10459750	          0.10457491	          0.10457491	          0.10457489	          0.10457491	          0.10457491	          0.10457491	          0.10457491	          0.10457491	          0.10457488	          0.10457491	          0.10457491	          0.10457493	          0.10457491	          0.10457491	          0.10457491	
          0.02872178	          1.15011742	          0.03085352	          0.89393463	         24.29944601	        -18.75683228	        -13.50735121	        -17.88630274	         -3.04351130	          4.43995734	         -6.69783498	          0.10457491	          0.10457492	          0.10460196	          0.10457491	          0.10457491	          0.10457490	          0.10457491	          0.10457491	          0.10457491	          0.10457491	          0.10457488	          0.10457488	          0.10457491	          0.10457491	          0.10457493	          0.10457491	          0.10457491	          0.10457491	
          0.04308268	          1.05962364	          0.04609157	          0.89535348	         24.28263207	        -18.22253043	        -14.97811700	        -20.33945017	         -3.59886866	          2.62950599	         -6.46135640	          0.10457491	          0.10457491	          0.10460056	          0.10457491	          0.10457491	          0.10457490	          0.10457491	          0.10457491	          0.10457491	          0.10457491	          0.10457487	          0.10457487	          0.10457491	          0.10457491	          0.10457493	          0.10457491	          0.10457491	          0.10457491	
          0.05744357	          0.90971666	          0.06121286	          0.89594729	         24.16837327	        -17.48651436	        -16.31421949	        -23.02031901	         -4.08715663	          0.52503239	         -6.20192631	          0.10457491	          0.10457492	          0.10460223	          0.10457491	          0.10457491	          0.10457490	          0.10457491	          0.10457491	          0.10457491	          0.10457491	          0.10457487	          0.10457487	          0.10457491	          0.10457491	          0.10457493	          0.10457491	          0.10457491	          0.10457491	
          0.07180446	          0.77365911	          0.07621493	          0.89632661	         23.95595335	        -16.48633416	        -17.48662272	        -25.88523234	         -4.43553916	         -1.69102407	         -5.91117243	          0.10457491	          0.10457492	          0.10460406	          0.10457491	          0.10457491	          0.10457490	          0.10457491	          0.10457491	          0.10457491	          0.10457491	          0.10457486	          0.10457488	          0.10457491	          0.10457491	          0.10457493	          0.10457491	          0.10457491	          0.10457491	
          0.08616535	          0.61791066	          0.09101166	          0.89667608	         23.70479909	        -15.23815617	        -18.55743587	        -28.94774485	         -4.68934177	         -4.05403457	         -5.60971576	          0.10457491	          0.10457489	          0.10460589	          0.10457491	          0.10457491	          0.10457490	          0.10457491	          0.10457491	          0.10457491	          0.10457491	          0.10457485	          0.10457488	          0.10457491	          0.10457491	          0.10457493	          0.10457491	          0.10457491	          0.10457491	
          0.10052625	          0.46442154	          0.10554131	          0.89710307	         23.44460117	        -13.78476050	        -19.64507851	        -32.15040037	         -4.43111497	         -6.14554733	         -5.33861163	          0.10457491	          0.10457483	          0.10460567	          0.10457491	          0.10457491	          0.10457491	          0.10457491	          0.10457491	          0.10457491	          0.10457491	          0.10457483	          0.10457488	          0.10457491	          0.10457491	          0.10457493	          0.10457491	          0.10457491	          0.10457491	
          0.11488714	          0.33894596	          0.11978834	          0.89771517	         23.11802599	        -12.15776932	        -20.64760290	        -35.46148879	         -3.99481499	         -8.23289906	         -5.13249093	          0.10457491	          0.10457476	          0.10460339	          0.10457491	          0.10457491	          0.10457491	          0.10457491	          0.10457491	          0.10457491	          0.10457491	          0.10457482	          0.10457488	          0.10457491	          0.10457491	          0.10457493	          0.10457491	          0.10457491	          0.10457491	
          0.12924803	          0.24782619	          0.13376576	          0.89853376	         22.67181351	        -10.37890739	        -21.48332783	        -38.86673784	         -3.36967467	         -9.88752137	         -4.99495919	          0.10457491	          0.10457472	          0.10459911	          0.10457491	          0.10457491	          0.10457491	          0.10457491	          0.10457491	          0.10457491	          0.10457491	          0.10457480	          0.10457488	          0.10457491	          0.10457491	          0.10457493	          0.10457491	          0.10457491	          0.10457491	
          0.14360892	          0.18349090	          0.14749076	          0.89956757	         22.08082597	         -8.45889033	        -22.09113819	        -42.29980262	         -2.59093682	        -11.33090458	         -4.91191941	          0.10457491	          0.10457472	          0.10459462	          0.10457491	          0.10457491	          0.10457491	          0.10457491	          0.10457491	          0.10457491	          0.10457491	          0.10457480	          0.10457489	          0.10457491	          0.10457491	          0.10457493	          0.10457491	          0.10457491	          0.10457491	
